<svg xmlns="http://www.w3.org/2000/svg" xmlns:xlink="http://www.w3.org/1999/xlink" viewBox="0 0 222 196" height="196" width="222">
	<style>
		.a{fill:none;stroke:#000;}
		.b{fill:#000;} 
		.c{fill:#fff;stroke-width:3;}
	</style>
	<defs><path id="t" d="M20 220C4 341 44 462 129 550 214 637 332 671 455 670H700"/></defs>
	<rect ry="13.9" y="22" x="22" height="152.7" width="177.6" class="a c"/>
	<g transform="translate(-8.9940472 -93.648804)matrix(0.08767692 0 0 0.08767692 42.688644 127.67591)">
      <path transform="translate(100,-100)"
         class="b"
         d="m 569,652 -19,-15 13,-21 -26,-4 16,-35 -34,-11 18,-37 -24,-14 24,-44 -28,-14 18,-39 -17,-17 10,-27 -11,-14 7,-11 -10,11 10,15 c 0,0 -5,19 -10,25 3,6 10,13 17,18 -4,4 -15,33 -19,42 0,0 21,10 28,13 -5,8 -21,32 -28,43 6,2 16,10 25,14 -7,5 -11,34 -19,40 0,0 28,7 37,10 -6,6 -10,24 -15,33 4,4 27,5 27,5 0,0 -8,15 -13,19 4,4 23,15 23,15 z m 12,9 c -37,4 -64,-50 -76,-71 -17,-27 -55,14 -98,39 -14,9 1,19 12,11 9,11 1,47 -5,50 -4,-26 -39,-46 -61,-48 C 170,627 97,487 79,437 c 0,0 4,-3 5,-1 4,10 25,47 44,39 19,-7 -10,-28 -10,-28 -9,-53 23,-112 23,-112 0,0 25,-34 9,-1 -26,55 -5,170 44,174 36,4 35,-58 9,-97 -27,-39 -46,-6 -38,27 3,14 11,21 20,19 13,-3 11,-14 11,-14 7,3 14,24 -15,26 -34,1 -44,-71 -14,-94 29,-24 66,53 89,27 22,-25 -18,-56 -31,-48 -10,6 -9,17 -3,22 6,5 18,6 16,6 -28,9 -41,-27 -20,-39 38,-21 57,68 117,13 36,-34 -15,-79 -47,-85 -5,-1 -8,-5 0,-3 52,11 93,59 50,96 -42,38 -69,49 -35,91 32,39 32,7 27,-7 0,0 40,37 34,88 -16,-28 -90,-88 -108,-70 -18,18 11,54 55,82 98,63 73,-20 120,-7 0,0 -30,10 -15,26 5,5 20,6 20,6 -33,1 -85,65 -140,28 -29,-19 1,-31 4,-27 -5,0 -11,7 0,18 5,5 16,5 19,5 10,-3 0,-15 -24,-36 -24,-20 -55,-23 -59,-19 -10,10 32,84 112,85 80,2 102,-95 131,-94 -10,8 -30,41 -19,40 76,-6 -11,-262 78,-268 -24,21 -18,68 -6,105 10,31 25,105 7,118 24,21 21,104 42,133 z M 273,135 c 6,7 3,14 -5,15 -23,-6 -60,-23 -91,8 -3,5 -1,7 2,4 10,-10 22,-15 33,-17 -2,3 -4,6 -4,10 0,6 5,11 10,11 6,0 11,-5 11,-11 0,-1 0,-2 -1,-3 0,2 -1,3 -3,3 -5,0 -5,-8 0,-8 1,0 1,0 1,0 -1,-1 -2,-2 -3,-2 32,0 62,18 63,5 0,0 0,0 0,0 2,-5 -4,-12 -13,-15 z M 58,211 c -1,-1 -2,-1 -2,-1 1,1 1,1 2,1 z m 357,68 c 36,-40 37,-112 23,-147 -98,-56 -280,-20 -323,34 -20,9 -84,4 -93,47 0,0 48,20 36,76 -1,4 2,3 3,-2 0,0 10,-47 -20,-76 -15,-15 18,-26 22,-17 3,5 -2,16 -5,17 3,0 10,-1 13,-13 4,-14 25,16 0,23 0,0 21,3 23,-16 2,-19 13,-27 21,-34 52,-58 220,-84 318,-28 10,30 13,94 -18,131 z M 38,395 c 14,-66 106,-130 93,-142 4,-7 30,-11 30,-11 l -2,-7 c -5,-4 -29,10 -29,10 9,-13 28,-18 28,-18 l -1,-10 c -6,-2 -27,16 -27,16 4,-17 31,-29 32,-31 0,-2 0,-13 0,-13 -58,32 -67,106 -82,122 -12,14 -75,87 -66,168 0,0 34,-47 92,-60 2,-27 16,-78 20,-79 0,0 -49,-2 -59,43 0,0 19,-16 22,-6 3,11 1,42 -29,48 -30,7 -29,10 -20,-15 9,-25 51,-110 134,-121 l -3,-12 c 0,0 -98,17 -133,118 z m 359,-90 -12,-2 11,-14 h -15 l 13,-22 -22,2 9,-24 -27,11 5,-27 -26,16 v -29 l -21,21 -2,-24 -12,22 -12,-20 -7,19 -16,-12 -3,14 -11,-9 -4,14 -8,-8 -6,10 -9,-6 c -4,3 -8,6 -13,9 0,1 -1,5 2,5 5,0 9,0 17,-1 10,-1 25,-3 39,-3 35,0 62,4 79,19 40,34 31,61 25,73 11,-9 20,-21 26,-34 z m 12,-36 c 0,30 -19,63 -44,80 v 0 h -1 c 0,0 0,0 -1,0 0,0 -1,0 -2,-1 -1,-1 1,-1 3,-3 4,-9 18,-35 -24,-71 -16,-15 -41,-22 -75,-22 -14,0 -26,1 -37,2 -7,1 -14,1 -19,1 -4,0 -12,0 -12,-5 v -1 l 1,-1 c 28,-21 78,-45 126,-45 23,0 43,5 59,16 17,11 26,29 26,50 z m -7,-104 c 18,-14 -17,-23 -38,-12 -4,2 -13,5 -2,-1 21,-11 72,-15 42,13 -2,1 -4,1 -2,0"
         id="path17" />
      <text font-family="Arial, sans-serif" font-weight="bold" class="b" font-size="60">
	<textPath xlink:href="#t" >
		VZS Jablonec nad Nisou
	</textPath>
	</text> 
    </g>
    
	<path d="M111.2 121.7H183" class="a"/>
	<path d="M111.2 157.2H183" class="a"/>
	<path d="M111.2 145.4H183" class="a"/>
	<path d="M111.2 133.6H183" class="a"/>
</svg>